<?xml version="1.0" encoding="UTF-8" standalone="no"?>
<!-- Generator: Adobe Illustrator 18.0.0, SVG Export Plug-In . SVG Version: 6.00 Build 0)  -->

<svg
   xmlns:dc="http://purl.org/dc/elements/1.1/"
   xmlns:cc="http://creativecommons.org/ns#"
   xmlns:rdf="http://www.w3.org/1999/02/22-rdf-syntax-ns#"
   xmlns="http://www.w3.org/2000/svg"
   xmlns:sodipodi="http://sodipodi.sourceforge.net/DTD/sodipodi-0.dtd"
   xmlns:inkscape="http://www.inkscape.org/namespaces/inkscape"
   version="1.1"
   id="Layer_1"
   x="0px"
   y="0px"
   viewBox="0 0 164.1 164.1"
   enable-background="new 0 0 164.1 164.1"
   xml:space="preserve"
   inkscape:version="0.91 r13725"
   sodipodi:docname="eddystone_tlm_encrypted.svg"><metadata
     id="metadata9"><rdf:RDF><cc:Work
         rdf:about=""><dc:format>image/svg+xml</dc:format><dc:type
           rdf:resource="http://purl.org/dc/dcmitype/StillImage" /><dc:title /></cc:Work></rdf:RDF></metadata><defs
     id="defs7"><path
       id="a"
       d="M0 0h24v24H0V0z" /></defs><sodipodi:namedview
     pagecolor="#ffffff"
     bordercolor="#666666"
     borderopacity="1"
     objecttolerance="10"
     gridtolerance="10"
     guidetolerance="10"
     inkscape:pageopacity="0"
     inkscape:pageshadow="2"
     inkscape:window-width="1259"
     inkscape:window-height="844"
     id="namedview5"
     showgrid="false"
     inkscape:snap-page="false"
     inkscape:snap-bbox="true"
     inkscape:bbox-paths="true"
     inkscape:bbox-nodes="true"
     inkscape:snap-bbox-edge-midpoints="true"
     inkscape:snap-bbox-midpoints="true"
     inkscape:snap-grids="false"
     inkscape:snap-to-guides="false"
     inkscape:snap-text-baseline="false"
     inkscape:zoom="8.1353903"
     inkscape:cx="101.99483"
     inkscape:cy="102.64953"
     inkscape:window-x="2375"
     inkscape:window-y="79"
     inkscape:window-maximized="0"
     inkscape:current-layer="Layer_1" /><polygon
     points="0,0 0,164.1 164.1,164.1 164.1,70.3 93.8,141.1 93.8,70.3 23.4,70.3 93.8,0 "
     id="polygon3" /><g
     style="fill:#000000"
     id="g4307"
     transform="matrix(2.9090205,0,0,2.9090205,99.691993,0)"><path
       id="path4297"
       d="M 0,0 24,0 24,24 0,24 Z"
       inkscape:connector-curvature="0"
       style="fill:none" /><path
       id="path4299"
       d="M 18,8 17,8 17,6 C 17,3.24 14.76,1 12,1 9.24,1 7,3.24 7,6 L 7,8 6,8 C 4.9,8 4,8.9 4,10 l 0,10 c 0,1.1 0.9,2 2,2 l 12,0 c 1.1,0 2,-0.9 2,-2 L 20,10 C 20,8.9 19.1,8 18,8 Z m -6,9 c -1.1,0 -2,-0.9 -2,-2 0,-1.1 0.9,-2 2,-2 1.1,0 2,0.9 2,2 0,1.1 -0.9,2 -2,2 z m 3.1,-9 -6.2,0 0,-2 c 0,-1.71 1.39,-3.1 3.1,-3.1 1.71,0 3.1,1.39 3.1,3.1 l 0,2 z"
       inkscape:connector-curvature="0" /></g><g
     style="font-style:normal;font-weight:normal;font-size:40.77354813px;line-height:125%;font-family:sans-serif;letter-spacing:0px;word-spacing:0px;fill:#ffffff;fill-opacity:1;stroke:none;stroke-width:1px;stroke-linecap:butt;stroke-linejoin:miter;stroke-opacity:1"
     id="text4311"><path
       d="m 4.2384249,126.49812 25.1450151,0 0,3.38453 -10.551748,0 0,26.33955 -4.041519,0 0,-26.33955 -10.5517481,0 0,-3.38453 z"
       style=""
       id="path7185" /><path
       d="m 33.285595,126.49812 4.02161,0 0,26.33956 14.473813,0 0,3.38452 -18.495423,0 0,-29.72408 z"
       style=""
       id="path7187" /><path
       d="m 55.98181,126.49812 5.992597,0 7.585313,20.22751 7.625131,-20.22751 5.992597,0 0,29.72408 -3.922065,0 0,-26.10065 -7.664949,20.38678 -4.041519,0 -7.664949,-20.38678 0,26.10065 -3.902156,0 0,-29.72408 z"
       style=""
       id="path7189" /></g></svg>