<?xml version="1.0" encoding="UTF-8" standalone="no"?>
<!-- Generator: Adobe Illustrator 18.0.0, SVG Export Plug-In . SVG Version: 6.00 Build 0)  -->

<svg
   xmlns:dc="http://purl.org/dc/elements/1.1/"
   xmlns:cc="http://creativecommons.org/ns#"
   xmlns:rdf="http://www.w3.org/1999/02/22-rdf-syntax-ns#"
   xmlns="http://www.w3.org/2000/svg"
   xmlns:sodipodi="http://sodipodi.sourceforge.net/DTD/sodipodi-0.dtd"
   xmlns:inkscape="http://www.inkscape.org/namespaces/inkscape"
   version="1.1"
   id="Layer_1"
   x="0px"
   y="0px"
   viewBox="0 0 164.1 164.1"
   enable-background="new 0 0 164.1 164.1"
   xml:space="preserve"
   inkscape:version="0.91 r13725"
   sodipodi:docname="eddystone_url.svg"><metadata
     id="metadata9"><rdf:RDF><cc:Work
         rdf:about=""><dc:format>image/svg+xml</dc:format><dc:type
           rdf:resource="http://purl.org/dc/dcmitype/StillImage" /><dc:title /></cc:Work></rdf:RDF></metadata><defs
     id="defs7"><path
       id="a"
       d="M0 0h24v24H0V0z" /></defs><sodipodi:namedview
     pagecolor="#ffffff"
     bordercolor="#666666"
     borderopacity="1"
     objecttolerance="10"
     gridtolerance="10"
     guidetolerance="10"
     inkscape:pageopacity="0"
     inkscape:pageshadow="2"
     inkscape:window-width="1259"
     inkscape:window-height="844"
     id="namedview5"
     showgrid="false"
     inkscape:snap-page="false"
     inkscape:snap-bbox="true"
     inkscape:bbox-paths="true"
     inkscape:bbox-nodes="true"
     inkscape:snap-bbox-edge-midpoints="true"
     inkscape:snap-bbox-midpoints="true"
     inkscape:snap-grids="false"
     inkscape:snap-to-guides="false"
     inkscape:snap-text-baseline="false"
     inkscape:zoom="2.8762948"
     inkscape:cx="-23.151452"
     inkscape:cy="16.185179"
     inkscape:window-x="2332"
     inkscape:window-y="88"
     inkscape:window-maximized="0"
     inkscape:current-layer="Layer_1" /><polygon
     points="0,0 0,164.1 164.1,164.1 164.1,70.3 93.8,141.1 93.8,70.3 23.4,70.3 93.8,0 "
     id="polygon3" /><g
     style="font-style:normal;font-weight:normal;font-size:40.77354813px;line-height:125%;font-family:sans-serif;letter-spacing:0px;word-spacing:0px;fill:#ffffff;fill-opacity:1;stroke:none;stroke-width:1px;stroke-linecap:butt;stroke-linejoin:miter;stroke-opacity:1"
     id="text4311"><path
       d="m 7.9016734,126.49812 4.0415186,0 0,18.05743 q 0,4.77815 1.73208,6.8885 1.732079,2.09044 5.614326,2.09044 3.862338,0 5.594417,-2.09044 1.73208,-2.11035 1.73208,-6.8885 l 0,-18.05743 4.041519,0 0,18.55515 q 0,5.81342 -2.886799,8.77985 -2.866891,2.96644 -8.481217,2.96644 -5.634235,0 -8.521035,-2.96644 -2.8668896,-2.96643 -2.8668896,-8.77985 l 0,-18.55515 z"
       style=""
       id="path4959" /><path
       d="m 52.31856,142.28593 q 1.294082,0.43799 2.508529,1.87144 1.234355,1.43344 2.468711,3.94197 l 4.081336,8.12286 -4.320244,0 -3.802611,-7.62513 q -1.473263,-2.98635 -2.86689,-3.96189 -1.373718,-0.97553 -3.762793,-0.97553 l -4.379971,0 0,12.56255 -4.02161,0 0,-29.72408 9.078485,0 q 5.096694,0 7.605223,2.13026 2.508529,2.13026 2.508529,6.4306 0,2.80716 -1.313992,4.65869 -1.294082,1.85153 -3.782702,2.56826 z m -10.073933,-12.48292 0,10.55175 5.056875,0 q 2.906708,0 4.379971,-1.3339 1.493172,-1.35381 1.493172,-3.96188 0,-2.60808 -1.493172,-3.92207 -1.473263,-1.3339 -4.379971,-1.3339 l -5.056875,0 z"
       style=""
       id="path4961" /><path
       d="m 66.573374,126.49812 4.02161,0 0,26.33956 14.473813,0 0,3.38452 -18.495423,0 0,-29.72408 z"
       style=""
       id="path4963" /></g></svg>